<?xml version="1.0" encoding="UTF-8"?>
<svg id="Layer_1" data-name="Layer 1" xmlns="http://www.w3.org/2000/svg" viewBox="0 0 360 360">
  <defs>
    <style>
      .cls-1 {
        fill: #000;
        stroke-width: 0px;
      }
    </style>
  </defs>
  <path class="cls-1" d="M134.29,157.17c-2-1.5-2.99-1.93-3.95-2.35l-.27-.12c-4.3-1.89-9.24-1.47-12.89,1.09-3.94,2.77-5.88,7.65-5.46,13.72.04.6.35.77.59.82.05,0,.1.01.15.01.46,0,.66-.45,1.07-1.4.43-1,1.15-2.68,2.28-4.45,2.08-3.26,4.79-5.45,7.63-6.15,2.59-.65,5.06-.53,8.8.41.37.09.72.19,1.03.27,1.47.39,2.01.54,2.3-.06.3-.62-.33-1.1-1.28-1.81Z"/>
  <path class="cls-1" d="M175.37,86.98c2.7-1.51,7.62-2.52,10.98-2.25,5.36.43,8.89,2.8,13.49,9.07.07.09.15.21.24.33.6.85,1.02,1.46,1.53,1.46.09,0,.18-.02.28-.06.58-.23.47-.94.44-1.18-1.05-6.92-4.87-12.12-10.49-14.27-5.34-2.05-11.46-.85-16.37,3.19-.03.03-3.27,2.81-2.47,3.98.52.76,1.68.12,2.38-.27Z"/>
  <path class="cls-1" d="M248.48,175.59c-.93.24-2.39.74-4.07,1.74-.6.36-1.35.8-1.14,1.48.22.7.96.64,2.92.47l.35-.03c3.54-.3,5.77,0,7.95,1.03,2.39,1.13,4.36,3.66,5.55,7.12.65,1.87.95,3.6,1.13,4.62.19,1.11.27,1.56.86,1.6.01,0,.03,0,.05,0,.25,0,.55-.12.72-.66,1.71-5.69.85-10.7-2.44-14.11-2.98-3.09-7.64-4.36-11.87-3.25Z"/>
  <path class="cls-1" d="M180,36c-79.53,0-144,64.47-144,144s64.47,144,144,144,144-64.47,144-144S259.53,36,180,36ZM112.93,82.61c9.87-6.78,25.53-15.91,45.86-20.51,25.92-5.86,46.83-2.31,57.89,7.02,16.25,13.71,23.23,34.44,31.12,83.07.06.37.11.74.16,1.11-4.18-.41-8.75-.62-13.56-.62-12.18,0-23.99,1.35-33.27,3.79-1.11.29-3.05,1.01-3.62,1.3-1.6.81-2.79,1.46-3.13,2.28-.16.39-.01,1.04.45,1.92.37.7,1.73,2.85,2.46,3.82,7.01,9.26,11.38,15.73,14.71,21.02-.69.38-1.46.81-2.31,1.27-6.66,3.65-17.73,9.72-29.55,17.92-6.25-12.64-13.13-25.78-16.97-32.47.44-.39.95-.85,1.5-1.37,3.73-3.52,10.66-10.36,22.49-22.9.87-.92,1.81-1.98,2.61-3.03.8-1.06,1.17-1.82,1.1-2.41-.06-.49-.19-.97-.94-1.67-.84-.78-3.06-2.11-4.26-2.64-15.96-6.99-35.63-9.71-49.56-9.97.03-.09.05-.18.07-.27,2.01-7.21,5.13-14.38,6.42-17.16.15-.33.22-.48-.06-.73-9.69-9.15-15.92-13.8-30.85-26.4-.84-.71.33-1.74,1.22-2.35ZM207.13,297.69c-8.69,2-17.75,3.06-27.05,3.06-1,0-2-.01-3-.04-.24-1.57-.52-3.19-.85-4.83-.53-2.63-1.18-5.34-1.95-8.1-3.38-12.19-8.93-25.41-15.88-37.46-8.28-14.38-22.19-33.45-41.39-42.65l-.58-.24-.29.51-.28.55.49.33c21.68,14.44,48.28,53.89,53.84,86.66.28,1.66.51,3.29.68,4.91-.95-.07-1.89-.16-2.84-.25-9.57-.95-18.8-3.03-27.57-6.1-2.15-2.37-4.78-5.48-6.79-8.51-1.97-2.97-5.01-9.31-5.94-11.64-.13-.31-.45-.5-.78-.44-.34.05-.61.34-.63.69-.1,1.59-.19,5.39.19,8.39.28,2.24.82,4.43,1.37,6.3-5.71-2.76-11.16-5.96-16.33-9.55-1.76-2.8-4.29-7.09-5.98-11.11h0c-1.37-3.26-3.21-10.03-3.71-12.48-.07-.33-.36-.57-.7-.57h0c-.34,0-.65.24-.72.58-.35,1.55-1.03,5.28-1.15,8.3-.08,1.96.02,3.92.2,5.67-1.77-1.6-3.49-3.25-5.16-4.95-3.44-3.29-6.57-6.88-9.36-10.75-9.27-12.83-14.73-28.58-14.73-45.61,0-32.38,23.14-62.65,47.85-71.94,9.41-3.54,42.26-2.49,65.58,7.73.21.09.51.25.54.38.06.25-.31.83-.7,1.24-10.75,11.41-17.92,18.58-22.28,22.7-2.12,2-3.45,2.89-3.83,3.83-.22.54-.22.99.34,1.92,4.77,7.95,17.61,32.75,25.35,49.58,3.25,7.06,8.77,19.91,14.2,32.91.74,1.76,1.47,3.53,2.2,5.28,6.43,15.5,12.3,30.12,13.56,34.19-1.95.55-3.91,1.06-5.9,1.52ZM278.83,249.03c-3.41,4.91-7.18,9.55-11.27,13.9.05-1.52.03-3.17-.12-4.8-.27-3.01-1.14-6.7-1.56-8.23-.09-.34-.42-.57-.76-.55-.34.02-.61.27-.67.61-.38,2.47-1.89,9.33-3.1,12.65-1.42,3.9-3.59,8.09-5.2,10.97-5.32,4.36-11.02,8.27-17.04,11.67.4-1.74.78-3.72.98-5.72.3-3,.19-6.78.09-8.36h0c-.02-.35-.29-.64-.63-.69-.34-.04-.65.16-.76.48-.79,2.37-3.37,8.85-5.06,11.91-1.44,2.61-3.26,5.29-4.89,7.55-3.57,1.59-7.23,3.01-10.97,4.25-1.39-4.5-7.81-20.45-14.61-36.78,13.18-13.79,28.01-24.93,40.29-29.98.34-.14.5-.51.39-.85-.11-.35-.47-.54-.82-.45-16.68,4.24-31.25,15.45-42.01,26.14-5.24-12.48-10.41-24.5-13.44-31.08-1.57-3.41-3.36-7.17-5.26-11.07.02-.02.05-.03.07-.05,15.83-11.04,30.54-18.31,34.71-20.86,1.62-.99,1.99-.91,1.72-1.36-3.56-5.89-8.22-13.27-17.56-25.61-.53-.71.13-1.1,1.08-1.35,17.8-4.69,41.46-6.05,56.97-.7,6.91,2.38,17.18,8.31,22.36,16.84,5.9,9.72,8.01,21.12,8.01,33.27,0,13.89-4.04,26.5-10.95,38.25Z"/>
</svg>