<?xml version="1.0" encoding="UTF-8"?>
<svg id="Layer_1" data-name="Layer 1" xmlns="http://www.w3.org/2000/svg" viewBox="0 0 360 360">
  <defs>
    <style>
      .cls-1 {
        fill: #000;
        stroke-width: 0px;
      }
    </style>
  </defs>
  <path class="cls-1" d="M45.93,184.29h-9.93v-24.07h9.93v-8.75c0-20.03,13.8-33.84,35.69-33.84,7.41,0,14.65,1.01,21.55,3.2v25.08c-4.88-1.85-10.77-3.03-15.49-3.03-8.08,0-13.13,4.04-13.13,11.95v5.39h13.8v24.07h-13.8v55.72h-28.62v-55.72Z"/>
  <path class="cls-1" d="M116.93,119.48h28.62v120.53h-28.62v-120.53Z"/>
  <path class="cls-1" d="M161.42,199.95c0-25.59,16.67-42.09,42.42-42.09s42.42,16.33,42.42,41.75-16.67,42.76-42.42,42.76-42.42-16.67-42.42-42.42ZM216.97,200.12c0-10.77-5.22-17.34-13.13-17.34s-13.13,6.4-13.13,17.17,5.22,17.34,13.13,17.34,13.13-6.4,13.13-17.17Z"/>
  <path class="cls-1" d="M258.18,200.79c0-25.92,16.33-42.08,42.42-42.08,7.58,0,15.66,1.68,22.73,4.88v25.92c-6.23-3.54-12.79-5.72-19.36-5.72-10.1,0-16.5,5.89-16.5,16.33s6.57,16.67,17.17,16.67c6.57,0,13.47-2.69,19.36-6.9v25.92c-7.24,3.7-15.66,6.06-23.23,6.06-26.09,0-42.59-15.66-42.59-41.07Z"/>
</svg>